<svg width="373" height="375" viewBox="0 0 373 375" fill="none" xmlns="http://www.w3.org/2000/svg">
<rect y="29" width="36" height="36" rx="18" fill="#F23E3E"/>
<path d="M220.41 108.077C229.011 108.077 236.24 105.149 242.098 99.2932C247.955 93.4371 250.884 86.2098 250.884 77.611C250.884 69.0123 247.955 61.7849 242.098 55.9289C236.24 50.0728 229.011 47.1448 220.41 47.1448C211.809 47.1448 204.579 50.0728 198.722 55.9289C192.864 61.7849 189.935 69.0123 189.935 77.611C189.935 86.2098 192.864 93.4371 198.722 99.2932C204.579 105.149 211.809 108.077 220.41 108.077ZM155.012 136.987C151.601 136.987 148.746 135.838 146.448 133.54C144.149 131.242 143 128.388 143 124.978V30.2438C143 26.834 144.149 23.9801 146.448 21.6822C148.746 19.3842 151.601 18.2353 155.012 18.2353H182.15L195.051 3.78048C196.238 2.59445 197.609 1.66786 199.167 1.00072C200.724 0.333572 202.318 0 203.949 0H236.87C238.502 0 240.096 0.333572 241.653 1.00072C243.21 1.66786 244.582 2.59445 245.768 3.78048L258.67 18.2353H285.808C289.218 18.2353 292.073 19.3842 294.372 21.6822C296.67 23.9801 297.819 26.834 297.819 30.2438V124.978C297.819 128.388 296.67 131.242 294.372 133.54C292.073 135.838 289.218 136.987 285.808 136.987H155.012Z" fill="#303030"/>
<path d="M138.105 353.062C138.105 365.149 128.268 374.948 116.134 374.948C104 374.948 94.1631 365.149 94.1631 353.062C94.1631 340.975 104 331.177 116.134 331.177C128.268 331.177 138.105 340.975 138.105 353.062Z" fill="#303030"/>
<path d="M346.251 353.062C346.251 365.149 336.414 374.948 324.28 374.948C312.146 374.948 302.309 365.149 302.309 353.062C302.309 340.975 312.146 331.177 324.28 331.177C336.414 331.177 346.251 340.975 346.251 353.062Z" fill="#303030"/>
<path fill-rule="evenodd" clip-rule="evenodd" d="M95.5062 309.938C100.517 318.153 108.57 322.26 119.664 322.26H340.845C342.537 322.26 343.943 321.724 345.066 320.653C346.189 319.581 346.751 318.245 346.751 316.644C346.751 315.043 346.214 313.614 345.14 312.358C344.067 311.102 342.814 310.473 341.382 310.473H118.054C112.685 310.473 108.748 307.973 106.243 302.973C103.738 297.973 103.738 293.329 106.243 289.043L135.233 236.004H150.175L287.698 236.004C292.708 236.004 297.45 234.665 301.924 231.986C306.398 229.307 310.066 225.646 312.929 221.003L368.761 119.211C374.13 110.282 374.398 102.156 369.567 94.8341C364.735 87.5122 356.951 83.8512 346.214 83.8512L77.7903 83.8512L61.6849 49.0275C60.3964 46.838 58.6544 44.9513 56.4587 43.3673C54.2626 41.7832 51.5309 40.9912 48.2637 40.9912H18.2002C16.5092 40.9912 15.1023 41.527 13.9795 42.5985C12.8565 43.67 12.2949 45.0986 12.2949 46.8845C12.2949 48.6703 12.8318 50.099 13.9055 51.1705C14.9792 52.242 16.2318 52.7777 17.6634 52.7777H49.8742L69.9421 94.8341L130.401 221.539L95.5062 283.686C90.4957 292.972 90.4957 301.723 95.5062 309.938ZM106.243 94.8341H83.0152L106.243 143.66V94.8341ZM118.283 94.8341V168.968L138.135 210.696V94.8344L118.283 94.8341ZM150.175 221.392L150.175 94.8344L168.32 94.8341L168.32 221.392H150.175ZM180.36 94.8341V221.392L199.662 221.336V94.8341H180.36ZM211.702 221.336L211.702 94.8341H229.354V221.213L211.702 221.336ZM241.394 94.8341V221.213L259.046 221.161V94.8341H241.394ZM271.086 221.161V94.8341H287.698V221.077L271.086 221.161ZM319.011 94.8341L319.011 182.009L300.122 214.58L299.738 94.8341H319.011ZM361.78 108.262C364.618 103.367 358.57 94.8341 353.217 94.8341L331 94.8341L330.789 161.699L361.78 108.262Z" fill="#C4C4C4"/>
<path d="M169.93 285.154C167.282 285.154 164.965 284.161 162.979 282.175C160.993 280.189 160 277.873 160 275.225V246.76H169.93V275.225H198.394V285.154H169.93ZM240.76 285.154V275.225H269.225V246.76H279.154V275.225C279.154 277.873 278.161 280.189 276.175 282.175C274.189 284.161 271.873 285.154 269.225 285.154H240.76ZM219.577 242.788C214.612 242.788 210.503 241.161 207.248 237.906C203.993 234.652 202.366 230.542 202.366 225.577C202.366 220.612 203.993 216.503 207.248 213.248C210.503 209.993 214.612 208.366 219.577 208.366C224.542 208.366 228.652 209.993 231.906 213.248C235.161 216.503 236.788 220.612 236.788 225.577C236.788 230.542 235.161 234.652 231.906 237.906C228.652 241.161 224.542 242.788 219.577 242.788ZM219.577 232.859C221.563 232.859 223.273 232.142 224.707 230.707C226.142 229.273 226.859 227.563 226.859 225.577C226.859 223.591 226.142 221.881 224.707 220.447C223.273 219.013 221.563 218.295 219.577 218.295C217.591 218.295 215.881 219.013 214.447 220.447C213.013 221.881 212.295 223.591 212.295 225.577C212.295 227.563 213.013 229.273 214.447 230.707C215.881 232.142 217.591 232.859 219.577 232.859ZM160 204.394V175.93C160 173.282 160.993 170.965 162.979 168.979C164.965 166.993 167.282 166 169.93 166H198.394V175.93H169.93V204.394H160ZM269.225 204.394V175.93H240.76V166H269.225C271.873 166 274.189 166.993 276.175 168.979C278.161 170.965 279.154 173.282 279.154 175.93V204.394H269.225Z" fill="#22F100"/>
</svg>
