<svg width="297" height="49" viewBox="0 0 297 49" fill="none" xmlns="http://www.w3.org/2000/svg">
<path d="M41.2045 11.1439C42.6173 14.2729 39.8366 17.3503 36.4034 17.3503V17.3503C34.2709 17.3503 32.5805 15.6943 31.5386 13.8337V13.8337C30.9649 12.7934 30.2284 11.9084 29.3291 11.1787C28.4297 10.449 27.3908 9.89005 26.2124 9.50191C25.0495 9.11376 23.7857 8.91969 22.4212 8.91969C19.9559 8.91969 17.8083 9.53296 15.9786 10.7595C14.149 11.9706 12.7302 13.7405 11.7223 16.0694C10.7145 18.3828 10.2105 21.193 10.2105 24.5C10.2105 27.9002 10.7145 30.757 11.7223 33.0704C12.7457 35.3838 14.1723 37.1304 16.0019 38.3104C17.8316 39.4903 19.9481 40.0804 22.3515 40.0804C23.7005 40.0804 24.9487 39.9018 26.0961 39.5447C27.259 39.1876 28.2902 38.6674 29.1895 37.9843C30.0889 37.2856 30.8331 36.4395 31.4224 35.4458V35.4458C32.5187 33.6442 34.2183 32.0527 36.3273 32.0623V32.0623C39.8061 32.0782 42.5324 35.2022 40.9528 38.3018C40.9316 38.3435 40.9101 38.3852 40.8885 38.4269C39.8496 40.4452 38.4464 42.254 36.6788 43.8532C34.9266 45.4368 32.8333 46.6944 30.399 47.626C27.9801 48.542 25.2433 49 22.1887 49C17.9401 49 14.1412 48.0374 10.792 46.1122C7.45824 44.1869 4.82227 41.4 2.88407 37.7515C0.96135 34.1028 0 29.6856 0 24.5C0 19.2988 0.976861 14.874 2.93058 11.2253C4.8843 7.57669 7.53578 4.79753 10.885 2.88784C14.2342 0.962609 18.0021 0 22.1887 0C24.9486 0 27.5072 0.388149 29.864 1.16445C32.2364 1.94075 34.3374 3.07414 36.1671 4.56464C37.9967 6.03961 39.4853 7.84838 40.6327 9.99102C40.8361 10.3658 41.0267 10.7501 41.2045 11.1439ZM58.6009 44.6584C57.8861 46.8584 55.836 48.3479 53.5228 48.3479V48.3479C50.1374 48.3479 47.7598 45.0133 48.8633 41.8128L60.9394 6.78546C62.2048 3.11524 65.6594 0.652095 69.5416 0.652095V0.652095C73.4253 0.652095 76.8809 3.11707 78.1452 6.78922L90.2034 41.8143C91.3053 45.0147 88.9276 48.3479 85.5428 48.3479V48.3479C83.2283 48.3479 81.1773 46.8568 80.4634 44.6552L78.1342 37.472L69.7292 11.5513H69.357L60.9357 37.472L58.6009 44.6584ZM56.7277 29.6003L82.2191 29.6003V37.472H78.1342H60.9357H56.7277V29.6003ZM103.221 48.3479C100.44 48.3479 98.186 46.0935 98.186 43.3125V6.6521C98.186 3.33839 100.872 0.652095 104.186 0.652095L116.979 0.652095C120.576 0.652095 123.646 1.29642 126.189 2.58508C128.748 3.85821 130.694 5.66699 132.028 8.01141C133.376 10.3403 134.051 13.0807 134.051 16.2324C134.051 19.3997 133.369 22.1245 132.004 24.4068C130.64 26.6737 128.662 28.4125 126.073 29.6236C123.499 30.8346 120.383 31.4401 116.723 31.4401H115.608H104.14V23.3356H115.095C117.018 23.3356 118.615 23.0716 119.886 22.5437C121.157 22.0158 122.104 21.224 122.724 20.1683C123.359 19.1125 123.678 17.8006 123.678 16.2324C123.678 14.6488 123.359 13.3135 122.724 12.2267C122.104 11.1399 121.15 10.3171 119.863 9.75808C118.592 9.18363 116.987 8.89639 115.049 8.89639H108.257V43.3125C108.257 46.0935 106.002 48.3479 103.221 48.3479V48.3479ZM123.91 26.6425L131.956 41.394C133.665 44.5275 131.397 48.3479 127.828 48.3479V48.3479C125.86 48.3479 124.052 47.2636 123.126 45.5276L120.12 39.894L115.608 31.4401L113.048 26.6425H123.91ZM143.511 8.96626C141.215 8.96626 139.354 7.10507 139.354 4.80918V4.80918C139.354 2.51329 141.215 0.652095 143.511 0.652095L174.318 0.652095C176.614 0.652095 178.475 2.51329 178.475 4.80918V4.80918C178.475 7.10507 176.614 8.96626 174.318 8.96626H163.891V43.3707C163.891 46.1196 161.663 48.3479 158.914 48.3479V48.3479C156.165 48.3479 153.937 46.1196 153.937 43.3707V8.96626H143.511ZM201.071 20.5642C203.245 20.5642 205.007 22.3263 205.007 24.5V24.5C205.007 26.6737 203.245 28.4358 201.071 28.4358L187.219 28.4358C185.045 28.4358 183.283 26.6737 183.283 24.5V24.5C183.283 22.3263 185.045 20.5642 187.219 20.5642L201.071 20.5642ZM213.996 8.96626C211.7 8.96626 209.839 7.10507 209.839 4.80918V4.80918C209.839 2.51329 211.7 0.652095 213.996 0.652095L244.803 0.652095C247.099 0.652095 248.96 2.51329 248.96 4.80918V4.80918C248.96 7.10507 247.099 8.96626 244.803 8.96626H234.376V43.3708C234.376 46.1196 232.148 48.3479 229.399 48.3479V48.3479C226.65 48.3479 224.422 46.1196 224.422 43.3708V8.96626L213.996 8.96626ZM297 24.5C297 29.7013 296.015 34.1262 294.046 37.7747C292.093 41.4233 289.425 44.2102 286.046 46.1354C282.68 48.0452 278.897 49 274.695 49C270.463 49 266.664 48.0374 263.299 46.1122C259.933 44.1869 257.275 41.4 255.321 37.7515C253.367 34.1028 252.39 29.6856 252.39 24.5C252.39 19.2988 253.367 14.874 255.321 11.2253C257.275 7.57669 259.933 4.79753 263.299 2.88784C266.664 0.962609 270.463 0 274.695 0C278.897 0 282.68 0.962609 286.046 2.88784C289.425 4.79753 292.093 7.57669 294.046 11.2253C296.015 14.874 297 19.2988 297 24.5ZM286.79 24.5C286.79 21.1309 286.286 18.2896 285.278 15.9762C284.285 13.6629 282.882 11.9084 281.068 10.7129C279.254 9.51743 277.13 8.91969 274.695 8.91969C272.261 8.91969 270.136 9.51743 268.322 10.7129C266.508 11.9084 265.097 13.6629 264.09 15.9762C263.097 18.2896 262.601 21.1309 262.601 24.5C262.601 27.8691 263.097 30.7104 264.09 33.0238C265.097 35.3371 266.508 37.0916 268.322 38.2871C270.136 39.4826 272.261 40.0804 274.695 40.0804C277.13 40.0804 279.254 39.4826 281.068 38.2871C282.882 37.0916 284.285 35.3371 285.278 33.0238C286.286 30.7104 286.79 27.8691 286.79 24.5Z" fill="white"/>
</svg>
