<svg width="383" height="313" viewBox="0 0 383 313" fill="none" xmlns="http://www.w3.org/2000/svg">
<path d="M146.436 6.49176V39.8779H158.956V6.49176C158.956 4.76062 158.34 3.24589 157.107 1.94753C155.874 0.649182 154.313 0 152.423 0C150.665 0 149.228 0.649182 148.111 1.94753C146.994 3.24589 146.436 4.76062 146.436 6.49176Z" fill="#303030"/>
<path d="M289.72 5.69467V39.8779H300.849V5.56436C300.849 3.97234 300.31 2.64693 299.232 1.58816C298.154 0.529382 296.778 0 295.106 0C293.564 0 292.281 0.494616 291.257 1.48384C290.232 2.47306 289.72 3.87666 289.72 5.69467Z" fill="#303030"/>
<path d="M88.1619 31.6975C83.339 36.5151 80.9275 42.4376 80.9275 49.4651V127.685H91.1214H356.164H366.357V49.4651C366.357 42.4376 363.946 36.5151 359.123 31.6975C354.301 26.8803 348.371 24.4717 341.336 24.4717H301.024H289.903H159.235H146.725H105.949C98.9136 24.4717 92.9846 26.8803 88.1619 31.6975Z" fill="#F23E3E"/>
<path d="M105.949 313C98.9136 313 92.9846 310.583 88.1619 305.748C83.339 300.914 80.9275 294.971 80.9275 287.92V127.685H91.1214H356.164H366.357V287.92C366.357 294.971 363.946 300.914 359.123 305.748C354.301 310.583 348.371 313 341.336 313H105.949Z" fill="#F0F0F0"/>
<path d="M192.527 295.161C183.601 295.161 176.014 292.046 169.766 285.817C163.518 279.588 160.394 272.025 160.394 263.126V224.989H199.26V51.0859L217.561 69.3916L235.862 51.0859L254.163 69.3916L272.464 51.0859L290.765 69.3916L309.127 51.0859L327.489 69.3916L345.851 51.0859L364.213 69.3916L382.575 51.0859V263.126C382.575 272.025 379.451 279.588 373.203 285.817C366.955 292.046 359.367 295.161 350.441 295.161H192.527Z" fill="#E9E9E9"/>
<path d="M192.527 295.16C183.601 295.16 176.014 292.053 169.766 285.839C163.518 279.625 160.394 272.079 160.394 263.201V225.154H199.26H217.622H336.67V263.201C336.67 267.259 337.945 270.557 340.495 273.093C343.046 275.63 346.361 276.898 350.441 276.898C379.07 276.898 382.454 272.281 382.572 263.699C382.457 272.361 379.334 279.741 373.203 285.839C366.955 292.053 359.367 295.16 350.441 295.16H192.527Z" fill="#C1C1C1"/>
<path d="M220.858 105.955C219.61 105.955 218.517 105.477 217.58 104.52C216.643 103.563 216.175 102.301 216.175 100.736C216.175 99.1699 216.669 97.914 217.656 96.968C218.643 96.022 219.867 95.549 221.327 95.549H307.5C308.96 95.549 310.183 96.0579 311.171 97.0759C312.158 98.0938 312.652 99.3551 312.652 100.86C312.652 102.365 312.158 103.59 311.171 104.536C310.183 105.482 308.96 105.955 307.5 105.955H220.858ZM355.739 112.577C352.617 112.577 349.885 111.395 347.543 109.03C345.202 106.665 344.03 103.906 344.03 100.752C344.03 97.5987 345.202 94.8394 347.543 92.4744C349.885 90.1093 352.617 88.9268 355.739 88.9268C358.861 88.9268 361.593 90.1093 363.935 92.4744C366.277 94.8394 367.447 97.5987 367.447 100.752C367.447 103.906 366.277 106.665 363.935 109.03C361.593 111.395 358.861 112.577 355.739 112.577Z" fill="#303030"/>
<path d="M220.858 105.955C219.61 105.955 218.517 105.477 217.58 104.52C216.643 103.563 216.175 102.301 216.175 100.736C216.175 99.1699 216.669 97.914 217.656 96.968C218.643 96.022 219.867 95.549 221.327 95.549H307.5C308.96 95.549 310.183 96.0579 311.171 97.0759C312.158 98.0938 312.652 99.3551 312.652 100.86C312.652 102.365 312.158 103.59 311.171 104.536C310.183 105.482 308.96 105.955 307.5 105.955H220.858Z" fill="#303030"/>
<path d="M355.739 112.577C352.617 112.577 349.885 111.395 347.543 109.03C345.202 106.665 344.03 103.906 344.03 100.752C344.03 97.5987 345.202 94.8394 347.543 92.4744C349.885 90.1093 352.617 88.9268 355.739 88.9268C358.861 88.9268 361.593 90.1093 363.935 92.4744C366.277 94.8394 367.447 97.5987 367.447 100.752C367.447 103.906 366.277 106.665 363.935 109.03C361.593 111.395 358.861 112.577 355.739 112.577Z" fill="#303030"/>
<path d="M220.858 149.472C219.61 149.472 218.517 148.993 217.58 148.036C216.643 147.079 216.175 145.818 216.175 144.252C216.175 142.686 216.669 141.431 217.656 140.485C218.643 139.539 219.867 139.066 221.327 139.066H307.5C308.96 139.066 310.183 139.575 311.171 140.592C312.158 141.61 312.652 142.872 312.652 144.377C312.652 145.881 312.158 147.107 311.171 148.053C310.183 148.999 308.96 149.472 307.5 149.472H220.858ZM355.739 156.094C352.617 156.094 349.885 154.912 347.543 152.546C345.202 150.181 344.03 147.422 344.03 144.269C344.03 141.115 345.202 138.356 347.543 135.991C349.885 133.626 352.617 132.443 355.739 132.443C358.861 132.443 361.593 133.626 363.935 135.991C366.277 138.356 367.447 141.115 367.447 144.269C367.447 147.422 366.277 150.181 363.935 152.546C361.593 154.912 358.861 156.094 355.739 156.094Z" fill="#303030"/>
<path d="M220.858 149.472C219.61 149.472 218.517 148.993 217.58 148.036C216.643 147.079 216.175 145.818 216.175 144.252C216.175 142.686 216.669 141.431 217.656 140.485C218.643 139.539 219.867 139.066 221.327 139.066H307.5C308.96 139.066 310.183 139.575 311.171 140.592C312.158 141.61 312.652 142.872 312.652 144.377C312.652 145.881 312.158 147.107 311.171 148.053C310.183 148.999 308.96 149.472 307.5 149.472H220.858Z" fill="#303030"/>
<path d="M355.739 156.094C352.617 156.094 349.885 154.912 347.543 152.546C345.202 150.181 344.03 147.422 344.03 144.269C344.03 141.115 345.202 138.356 347.543 135.991C349.885 133.626 352.617 132.443 355.739 132.443C358.861 132.443 361.593 133.626 363.935 135.991C366.277 138.356 367.447 141.115 367.447 144.269C367.447 147.422 366.277 150.181 363.935 152.546C361.593 154.912 358.861 156.094 355.739 156.094Z" fill="#303030"/>
<path d="M220.858 192.043C219.61 192.043 218.517 191.565 217.58 190.608C216.643 189.65 216.175 188.389 216.175 186.823C216.175 185.258 216.669 184.002 217.656 183.056C218.643 182.11 219.867 181.637 221.327 181.637H307.5C308.96 181.637 310.183 182.146 311.171 183.164C312.158 184.182 312.652 185.443 312.652 186.948C312.652 188.453 312.158 189.678 311.171 190.624C310.183 191.57 308.96 192.043 307.5 192.043H220.858ZM355.739 198.665C352.617 198.665 349.885 197.483 347.543 195.118C345.202 192.753 344.03 189.993 344.03 186.84C344.03 183.687 345.202 180.927 347.543 178.562C349.885 176.197 352.617 175.015 355.739 175.015C358.861 175.015 361.593 176.197 363.935 178.562C366.277 180.927 367.447 183.687 367.447 186.84C367.447 189.993 366.277 192.753 363.935 195.118C361.593 197.483 358.861 198.665 355.739 198.665Z" fill="#303030"/>
<path d="M220.858 192.043C219.61 192.043 218.517 191.565 217.58 190.608C216.643 189.65 216.175 188.389 216.175 186.823C216.175 185.258 216.669 184.002 217.656 183.056C218.643 182.11 219.867 181.637 221.327 181.637H307.5C308.96 181.637 310.183 182.146 311.171 183.164C312.158 184.182 312.652 185.443 312.652 186.948C312.652 188.453 312.158 189.678 311.171 190.624C310.183 191.57 308.96 192.043 307.5 192.043H220.858Z" fill="#303030"/>
<path d="M355.739 198.665C352.617 198.665 349.885 197.483 347.543 195.118C345.202 192.753 344.03 189.993 344.03 186.84C344.03 183.687 345.202 180.927 347.543 178.562C349.885 176.197 352.617 175.015 355.739 175.015C358.861 175.015 361.593 176.197 363.935 178.562C366.277 180.927 367.447 183.687 367.447 186.84C367.447 189.993 366.277 192.753 363.935 195.118C361.593 197.483 358.861 198.665 355.739 198.665Z" fill="#303030"/>
<path d="M162.413 295.207L130.992 284.93L66.7081 157.954L108.419 136.771L172.703 263.747L162.413 295.207Z" fill="#D5D5D5"/>
<path d="M66.7081 157.954L108.419 136.771L95.6216 111.493L53.9108 132.676L66.7081 157.954Z" fill="#D5D5D5"/>
<path d="M162.413 295.207L130.993 284.93L66.7087 157.954L108.419 136.771L172.703 263.747L162.413 295.207ZM95.6221 111.494L53.9114 132.677L45.2807 115.629C43.6934 112.494 43.5278 109.006 44.7839 105.166C46.04 101.326 48.2346 98.6099 51.3678 97.0187L68.4046 88.3665C71.5378 86.7753 75.0221 86.607 78.8574 87.8615C82.6928 89.116 85.4041 91.3108 86.9914 94.446L95.6221 111.494Z" fill="#E85D5D"/>
<path d="M172.703 263.747L130.993 284.93L66.7086 157.954L108.419 136.771L172.703 263.747Z" fill="#232323"/>
<path fill-rule="evenodd" clip-rule="evenodd" d="M172.703 263.747L167.489 266.395L103.205 139.419L108.419 136.771L172.703 263.747ZM92.7778 144.715L87.5639 147.363L82.3501 150.011L146.634 276.986L151.848 274.338L157.062 271.691L92.7778 144.715ZM130.993 284.93L136.206 282.282L71.9224 155.306L66.7086 157.954L130.993 284.93Z" fill="#F4D73D"/>
<path d="M162.413 295.208L130.993 284.931L172.703 263.748L162.413 295.208Z" fill="#FFDAA4"/>
<path d="M162.617 295.274L146.907 290.136L167.763 279.544L162.617 295.274Z" fill="#303030"/>
</svg>
