<svg width="918" height="744" viewBox="0 0 918 744" fill="none" xmlns="http://www.w3.org/2000/svg">
<path fill-rule="evenodd" clip-rule="evenodd" d="M694.067 642.444C717.121 642.444 733.854 633.926 744.266 616.891C754.677 599.856 754.677 581.71 744.266 562.452L671.756 433.577L797.386 170.828L839.085 83.6147H906.017C908.992 83.6147 911.595 82.5037 913.826 80.2817C916.057 78.0597 917.172 75.0971 917.172 71.3938C917.172 67.6905 916.006 64.7278 913.672 62.5058C911.339 60.2838 908.415 59.1729 904.902 59.1729H842.432C835.643 59.1729 829.967 60.8153 825.403 64.1001C820.841 67.3849 817.221 71.2975 814.544 75.8377L781.078 148.052H223.314C201.004 148.052 184.828 155.644 174.789 170.828C164.749 186.011 165.307 202.861 176.462 221.378L292.477 432.466C298.426 442.095 306.049 449.687 315.345 455.242C324.641 460.797 334.495 463.574 344.907 463.574H630.669H661.717L721.955 573.562C727.161 582.45 727.161 592.079 721.955 602.448C716.749 612.817 708.569 618.002 697.413 618.002H233.354C230.379 618.002 227.776 619.305 225.545 621.91C223.314 624.515 222.199 627.478 222.199 630.798C222.199 634.118 223.366 636.889 225.699 639.111C228.032 641.333 230.955 642.444 234.469 642.444H694.067ZM190.97 198.673L319.09 419.147L326.888 432.567L344.907 432.62L645.005 433.499L696.937 324.56L721.955 272.078L770.221 170.828H721.955H696.937H208.762C197.639 170.828 185.071 188.522 190.97 198.673Z" fill="#C4C4C4"/>
<path d="M344.907 432.62L326.888 432.567L319.09 419.147C323.723 427.121 332.461 432.583 344.907 432.62Z" fill="#C4C4C4"/>
<path d="M721.955 170.828V272.078L696.937 324.56V170.828H721.955Z" fill="#C4C4C4"/>
<path d="M721.955 170.828V272.078L696.937 324.56V170.828H721.955Z" fill="#C4C4C4"/>
<path d="M655.687 170.828L655.687 433.53L630.669 433.457L630.668 170.828H655.687Z" fill="#C4C4C4"/>
<path d="M655.687 170.828L655.687 433.53L630.669 433.457L630.668 170.828H655.687Z" fill="#C4C4C4"/>
<path d="M592.964 170.828L592.964 433.273H567.946V170.828H592.964Z" fill="#C4C4C4"/>
<path d="M592.964 170.828L592.964 433.273H567.946V170.828H592.964Z" fill="#C4C4C4"/>
<path d="M527.838 170.828V433.156H502.82L502.82 170.828H527.838Z" fill="#C4C4C4"/>
<path d="M527.838 170.828V433.156H502.82L502.82 170.828H527.838Z" fill="#C4C4C4"/>
<path d="M466.14 170.828V432.902H441.122V170.828H466.14Z" fill="#C4C4C4"/>
<path d="M466.14 170.828V432.902H441.122V170.828H466.14Z" fill="#C4C4C4"/>
<path d="M404.442 170.828V432.794H379.424V170.828H404.442Z" fill="#C4C4C4"/>
<path d="M404.442 170.828V432.794H379.424V170.828H404.442Z" fill="#C4C4C4"/>
<path d="M344.907 170.828V432.62L320.918 432.55L319.888 170.828H344.907Z" fill="#C4C4C4"/>
<path d="M344.907 170.828V432.62L320.918 432.55L319.888 170.828H344.907Z" fill="#C4C4C4"/>
<path d="M279.839 169.89V351.602L255.365 309.487L254.821 169.89H279.839Z" fill="#C4C4C4"/>
<path d="M279.839 169.89V351.602L255.365 309.487L254.821 169.89H279.839Z" fill="#C4C4C4"/>
<path d="M580.242 343.06L551.837 348.255C551.837 348.255 552.174 376.431 551.875 389.638C551.576 402.846 551.47 421.568 551.683 423.939C551.866 426 558.193 432.55 558.193 432.55L579.499 440.271L600.207 439.526L618.253 431.07C618.253 431.07 620.944 427.441 621.455 426.213C621.851 425.274 621.484 398.995 621.484 386.484C621.484 375.947 622.015 347.336 622.015 347.336L580.242 343.06Z" fill="#E4AE2A"/>
<path d="M551.853 428.91C552.181 430.323 563.612 443.089 586.697 443.089C609.782 443.089 620.848 431.889 621.06 430.734C621.272 429.579 621.31 426.284 621.31 426.284C621.31 426.284 610.1 438.363 587.015 438.468C563.603 438.573 551.574 424.069 551.574 424.069C551.574 424.069 551.526 427.497 551.853 428.91Z" fill="#D7D7D7"/>
<path d="M561.743 333.197L551.851 340.562C551.851 340.562 551.562 343.709 551.572 345.192C551.591 347.391 551.889 348.453 551.889 348.453C551.889 348.453 558.535 359.166 587.219 359.931C613.139 360.62 621.913 350.883 621.913 350.883C621.913 350.883 623.021 348.577 623.262 346.913C623.666 344.168 623.185 341.834 623.185 341.834L561.743 333.197Z" fill="#D7D7D7"/>
<path d="M587.665 326.904C570.426 326.273 551.678 332.131 551.572 341.295C551.465 350.788 575.314 356.355 587.123 356.442C601.786 356.549 623.099 351.322 623.419 342.788C623.748 334.264 606.519 327.592 587.665 326.904Z" fill="#B0B0B0"/>
<path d="M587.56 339.021C587.56 339.021 559.687 344.312 558.091 342.936C556.494 341.561 555.217 340.397 558.835 337.223C562.454 334.048 572.438 329.777 588.411 330.451C605.168 331.163 617.649 336.809 618.452 341.291C618.597 342.08 618.374 343.523 617.465 344.023C617.262 344.139 612.173 346.582 612.173 346.582C612.173 346.582 586.815 338.915 587.56 339.021Z" fill="#858585"/>
<path d="M605.152 335.731C594.369 332.7 576.732 331.914 567.388 336.029C558.044 340.144 558.623 343.031 558.623 343.031C558.623 343.031 566.654 350.551 587.641 350.801C610.046 351.069 617.788 344.048 617.788 344.048C617.788 344.048 617.151 339.108 605.152 335.731Z" fill="#E0E0E0"/>
<path d="M563.969 367.821C563.288 368.159 563.23 369.414 563.124 371.008C563.019 372.602 562.702 418.485 562.913 418.91C563.124 419.335 570.408 427.197 586.979 426.878C602.918 426.569 610.719 420.88 610.719 420.88C610.719 420.88 610.93 391.917 611.036 385.118C611.141 378.319 611.909 370.351 611.036 369.55C609.587 368.217 602.802 370.042 587.085 369.83C571.367 369.617 565.235 367.184 563.969 367.821Z" fill="#547F00"/>
<path d="M566.877 372.924C566.124 374.054 566.423 394.912 566.423 399.093C566.423 403.274 566.385 416.52 566.385 416.52C566.385 416.52 572.842 422.68 585.553 422.66C598.448 422.641 606.43 418.372 606.43 418.372C606.43 418.372 606.787 400.682 606.893 392.758C607 384.834 607.202 375.429 607.222 373.976C607.241 372.758 595.157 374.727 585.611 374.298C573.517 373.772 567.514 371.959 566.877 372.924Z" fill="#CA2929"/>
<path d="M573.164 381.17C572.528 381.463 572.149 381.773 572.026 382.803C571.864 384.134 572.49 384.968 573.202 385.34C573.913 385.713 579.65 385.988 586.849 386.024C594.388 386.068 600.799 385.855 600.799 385.855C600.799 385.855 601.586 385.039 601.586 383.566C601.586 382.377 601.226 381.844 600.799 381.569C600.363 381.294 591.96 381.658 586.507 381.622C580.352 381.578 573.79 380.877 573.164 381.17Z" fill="#547F00"/>
<path d="M572.704 402.732C572.704 410.413 577.787 416.406 587.128 416.32C596.468 416.234 600.43 407.939 600.165 403.125C599.84 397.209 596.389 390.257 586.557 390.257C576.726 390.257 572.704 397.142 572.704 402.732Z" fill="#FF3E00"/>
<path d="M580.242 258.527L551.837 263.686C551.837 263.686 552.174 291.657 551.875 304.769C551.576 317.88 551.47 336.467 551.683 338.821C551.866 340.866 558.193 347.369 558.193 347.369L579.499 355.035L600.207 354.295L618.253 345.9C618.253 345.9 620.944 342.298 621.455 341.078C621.851 340.146 621.484 314.057 621.484 301.637C621.484 291.177 622.015 262.773 622.015 262.773L580.242 258.527Z" fill="#4681DA"/>
<path d="M551.853 343.674C552.181 345.087 563.612 357.853 586.697 357.853C609.782 357.853 620.848 346.653 621.06 345.498C621.272 344.342 621.31 341.048 621.31 341.048C621.31 341.048 610.1 353.126 587.015 353.231C563.603 353.336 551.574 338.833 551.574 338.833C551.574 338.833 551.526 342.261 551.853 343.674Z" fill="#B0B0B0"/>
<path d="M561.743 247.961L551.851 255.326C551.851 255.326 551.562 258.473 551.572 259.955C551.591 262.155 551.889 263.217 551.889 263.217C551.889 263.217 558.535 273.929 587.219 274.695C613.139 275.383 621.913 265.646 621.913 265.646C621.913 265.646 623.021 263.341 623.262 261.677C623.666 258.932 623.185 256.598 623.185 256.598L561.743 247.961Z" fill="#E0E0E0"/>
<path d="M587.665 241.667C570.426 241.037 551.678 246.894 551.572 256.058C551.465 265.552 575.314 271.118 587.123 271.206C601.786 271.312 623.099 266.085 623.419 257.552C623.748 249.028 606.519 242.356 587.665 241.667Z" fill="#B0B0B0"/>
<path d="M587.56 254.489C587.56 254.489 559.687 259.78 558.091 258.404C556.494 257.028 555.217 255.865 558.835 252.69C562.454 249.516 572.438 245.245 588.411 245.918C605.168 246.63 617.649 252.277 618.452 256.759C618.597 257.548 618.374 258.991 617.465 259.491C617.262 259.606 612.173 262.05 612.173 262.05C612.173 262.05 586.815 254.383 587.56 254.489Z" fill="#858585"/>
<path d="M605.152 250.597C594.369 247.444 576.732 246.626 567.388 250.906C558.044 255.185 558.623 258.188 558.623 258.188C558.623 258.188 566.654 266.009 587.641 266.268C610.046 266.548 617.788 259.245 617.788 259.245C617.788 259.245 617.151 254.108 605.152 250.597Z" fill="#E0E0E0"/>
<path d="M563.969 283.289C563.288 283.627 563.23 284.882 563.124 286.476C563.019 288.069 562.702 333.953 562.913 334.378C563.124 334.803 570.408 342.664 586.979 342.346C602.918 342.037 610.719 336.348 610.719 336.348C610.719 336.348 610.93 307.385 611.036 300.586C611.141 293.787 611.909 285.819 611.036 285.017C609.587 283.685 602.802 285.51 587.085 285.298C571.367 285.085 565.235 282.651 563.969 283.289Z" fill="#9B8022"/>
<path d="M566.877 288.389C566.124 289.503 566.423 310.067 566.423 314.189C566.423 318.312 566.385 331.371 566.385 331.371C566.385 331.371 572.842 337.444 585.553 337.425C598.448 337.405 606.43 333.196 606.43 333.196C606.43 333.196 606.787 315.756 606.893 307.943C607 300.131 607.202 290.858 607.222 289.426C607.241 288.225 595.157 290.166 585.611 289.743C573.517 289.225 567.514 287.437 566.877 288.389Z" fill="#3D4551"/>
<path d="M573.164 295.944C572.528 296.278 572.149 296.633 572.026 297.81C571.864 299.331 572.49 300.284 573.202 300.71C573.913 301.136 579.65 301.45 586.849 301.491C594.388 301.542 600.799 301.298 600.799 301.298C600.799 301.298 601.586 300.365 601.586 298.682C601.586 297.323 601.226 296.714 600.799 296.4C600.363 296.086 591.96 296.502 586.507 296.461C580.352 296.41 573.79 295.609 573.164 295.944Z" fill="#9B8022"/>
<path d="M572.704 317.496C572.704 325.177 577.787 331.17 587.128 331.084C596.468 330.997 600.43 322.703 600.165 317.889C599.84 311.973 596.389 305.021 586.557 305.021C576.726 305.021 572.704 311.905 572.704 317.496Z" fill="#FFBF19"/>
<rect width="178.222" height="23.9507" transform="matrix(-1 0 0 1 196.537 200.06)" fill="#C3C3C3"/>
<rect width="176.108" height="23.9507" transform="matrix(-1 0 0 1 234.576 260.641)" fill="#C3C3C3"/>
<rect width="178.222" height="23.9507" transform="matrix(-1 0 0 1 274.729 321.222)" fill="#C3C3C3"/>
<rect width="168.36" height="23.2463" transform="matrix(-1 0 0 1 299.384 388.848)" fill="#C3C3C3"/>
<rect width="175.404" height="23.9507" transform="matrix(-1 0 0 1 712.887 521.281)" fill="#C3C3C3"/>
<path d="M672.495 698.094C672.495 722.994 692.891 743.178 718.051 743.178C743.21 743.178 763.606 722.994 763.606 698.094C763.606 673.195 743.21 653.011 718.051 653.011C692.891 653.011 672.495 673.195 672.495 698.094Z" fill="#303030"/>
<path d="M240.916 698.094C240.916 722.994 261.312 743.178 286.472 743.178C311.631 743.178 332.027 722.994 332.027 698.094C332.027 673.195 311.631 653.011 286.472 653.011C261.312 653.011 240.916 673.195 240.916 698.094Z" fill="#303030"/>
<path d="M495.56 698.094C495.56 722.994 515.983 743.178 541.176 743.178C566.37 743.178 586.793 722.994 586.793 698.094C586.793 673.195 566.37 653.011 541.176 653.011C515.983 653.011 495.56 673.195 495.56 698.094Z" fill="#303030"/>
<path d="M63.3989 698.094C63.3989 722.994 83.8222 743.178 109.016 743.178C134.209 743.178 154.632 722.994 154.632 698.094C154.632 673.195 134.209 653.011 109.016 653.011C83.8222 653.011 63.3989 673.195 63.3989 698.094Z" fill="#303030"/>
<rect width="192.31" height="43.6749" rx="21.8374" transform="matrix(-1 0 0 1 911.537 50.7197)" fill="#F23E3E"/>
<rect width="43.6749" height="43.6749" rx="21.8374" transform="matrix(-1 0 0 1 762.901 50.7197)" fill="#CC3232"/>
<path d="M459.807 439.98H558.616L537.179 294.522L542.174 59.2041L291.934 61.9227L226.123 97.6239L459.807 439.98Z" fill="#A47142"/>
<path d="M481.47 97.8627L501.885 82.2255L542.172 59.2041L291.933 61.4925L233.519 97.8627H481.47Z" fill="#263238"/>
<path d="M292.911 64.7966L235.633 97.6328L481.469 97.8627L526.426 62.7876L292.911 64.7966ZM291.933 59.2041H542.172L481.469 97.8627L226.123 97.6239L291.933 59.2041Z" fill="#734C27"/>
<path d="M461.867 103.114C452.352 74.3803 437.842 52.0942 437.842 52.0942L437.719 52.1195C435.314 47.0136 421.517 45.4267 405.742 48.654C405.481 48.7075 405.223 48.7746 404.948 48.8308C404.687 48.8843 404.423 48.9239 404.148 48.9802C388.373 52.2075 376.319 59.0688 376.102 64.7254L375.978 64.7507C375.978 64.7507 371.387 90.9445 373.921 121.107C376.447 151.156 378.637 169.42 387.798 175.291C393.928 179.219 416.281 177.424 430.654 174.483C445.028 171.543 466.29 164.415 470.385 158.395C476.504 149.398 471.345 131.741 461.867 103.114Z" fill="#778F33"/>
<path d="M400.635 30.8297C391.717 32.6542 384.782 35.6336 385.158 37.4749L389.018 56.342C389.395 58.1834 396.943 58.1996 405.861 56.3751C414.78 54.5506 421.715 51.5712 421.338 49.7298L417.481 30.8765C417.102 29.0214 409.553 29.0051 400.635 30.8297Z" fill="#78909C"/>
<path d="M406.244 32.2876C406.244 32.2876 404.619 33.5078 401.142 34.2191C397.652 34.9331 395.691 34.4466 395.691 34.4466L392.562 19.1523L403.129 16.9905L406.258 32.2848L406.244 32.2876Z" fill="#78909C"/>
<path d="M399.269 28.0017C393.943 27.0871 393.611 24.3488 393.611 24.3488L393.08 21.7517L403.647 19.5898L405.306 27.6973C405.306 27.6973 403.853 28.782 399.269 28.0017Z" fill="#546E7A"/>
<path d="M382.748 13.7301L382.016 17.5019C381.831 18.4847 382.47 19.2989 383.366 19.7598C386.451 21.3334 392.207 22.9475 397.484 21.868C412.641 18.7671 414.699 14.4806 420.093 13.1337C424.695 11.9774 428.524 12.64 430.478 12.7414C431.114 12.7688 431.709 12.3894 431.945 11.7969L433.611 7.61939C433.962 6.74585 433.435 5.77989 432.523 5.5941C429.688 5.02893 423.792 4.20216 417.924 5.40258C407.714 7.49138 403.522 10.7255 397.151 11.7713C392.942 12.4748 387.592 12.3526 384.854 12.1253C383.835 12.0473 382.947 12.7444 382.748 13.7301Z" fill="#78909C"/>
<path opacity="0.75" d="M394.717 41.2317C394.407 41.2523 394.082 41.2757 393.771 41.2963C392.482 41.3598 391.139 41.3052 389.929 40.8511C389.028 40.5058 388.178 39.9208 387.638 39.1007C387.104 38.3081 387.268 37.5014 388.372 37.5763C390.708 37.7283 393.005 37.831 395.34 37.7684C397.389 37.7071 399.401 37.1811 401.41 36.7844C401.946 36.6748 402.793 36.8306 402.591 37.588C402.52 37.8744 402.296 38.1064 402.079 38.3082C399.961 40.2018 397.445 40.9886 394.717 41.2317Z" fill="#A7FFEB"/>
<path d="M383.825 107.168C382.484 107.471 381.286 103.994 380.607 98.5067C379.373 88.6946 379.458 81.1323 381.649 71.4784C383.055 65.2637 392.433 64.7053 391.212 71.197C388.318 86.6499 387.288 92.7446 386.552 98.5218C385.901 103.737 385.507 106.781 383.825 107.168Z" fill="#98B449"/>
<path d="M400.587 121.221C398.443 110.879 406.122 92.5718 409.997 84.7068C410.997 82.6696 412.472 82.2532 414.135 83.8028C420.662 89.8835 435.166 102.765 437.401 113.689C439.481 123.858 432.923 133.79 422.754 135.87C412.586 137.95 402.692 131.37 400.587 121.221Z" fill="white"/>
<path d="M226.281 440.031H459.807L481.471 304.889V97.8593L226.124 97.624L226.281 266.285V440.031Z" fill="#D09864"/>
<path d="M558.615 440.009L506.817 383.662L460.657 439.989L481.991 305.963L481.191 97.6237L486.783 94.1826L506.817 306.884L558.615 440.009Z" fill="#734C27"/>
<path d="M466.6 449.112C496.658 445.549 521.401 435.801 521.401 435.801V435.675C526.885 434.342 531.205 421.144 531.205 405.042C531.205 404.775 531.191 404.509 531.191 404.228C531.191 403.962 531.205 403.695 531.205 403.415C531.205 387.313 526.899 374.128 521.401 372.781V372.655C521.401 372.655 496.658 362.907 466.6 359.344C436.655 355.796 418.322 354.281 410.734 362.08C405.657 367.297 402.936 389.557 402.936 404.228C402.936 418.899 405.657 441.159 410.734 446.377C418.322 454.175 436.655 452.66 466.6 449.112Z" fill="#4FE8D8"/>
<path d="M549.691 403.611C549.691 394.508 548.162 387.116 546.283 387.116H527.025C525.145 387.116 523.616 394.508 523.616 403.611C523.616 412.714 525.145 420.106 527.025 420.106H546.269C548.162 420.106 549.691 412.714 549.691 403.611Z" fill="#78909C"/>
<path d="M547.138 408.813C547.138 408.813 546.269 406.976 546.269 403.427C546.269 399.864 547.138 398.041 547.138 398.041H562.75V408.827H547.138V408.813Z" fill="#78909C"/>
<path d="M552.735 402.84C554.699 397.804 557.448 398.029 557.448 398.029H560.099V408.815H551.823C551.823 408.815 551.052 407.174 552.735 402.84Z" fill="#546E7A"/>
<path d="M570.029 389.514L566.48 388.042C565.555 387.663 564.629 388.126 563.998 388.911C561.838 391.618 559.102 396.934 559.102 402.32C559.102 417.791 562.89 420.666 563.128 426.221C563.338 430.962 561.922 434.58 561.431 436.474C561.277 437.091 561.529 437.75 562.062 438.101L565.821 440.57C566.606 441.089 567.658 440.766 568.023 439.91C569.145 437.245 571.137 431.635 571.137 425.646C571.137 415.224 568.809 410.469 569.061 404.017C569.215 399.753 570.408 394.536 571.179 391.899C571.46 390.917 570.955 389.907 570.029 389.514Z" fill="#78909C"/>
<path opacity="0.75" d="M540.686 395.728C540.728 395.42 540.77 395.097 540.812 394.789C541.009 393.512 541.331 392.208 542.018 391.114C542.537 390.3 543.281 389.585 544.192 389.22C545.076 388.856 545.834 389.178 545.539 390.244C544.922 392.502 544.361 394.733 543.954 397.033C543.603 399.053 543.716 401.128 543.702 403.176C543.702 403.723 543.379 404.523 542.678 404.172C542.411 404.046 542.229 403.779 542.075 403.527C540.644 401.072 540.377 398.449 540.686 395.728Z" fill="#A7FFEB"/>
<path d="M478.27 371.841C478.242 370.466 481.889 369.989 487.401 370.424C497.261 371.182 504.653 372.781 513.672 376.862C519.479 379.485 518.146 388.784 512.031 386.288C497.472 380.355 491.707 378.125 486.195 376.245C481.216 374.562 478.312 373.566 478.27 371.841Z" fill="#A7FFEB"/>
<path d="M461.143 385.446C471.705 385.418 488.101 396.611 495.03 401.983C496.825 403.372 496.938 404.901 495.086 406.219C487.821 411.395 472.294 423.022 461.143 423.022C450.764 423.022 442.348 414.607 442.348 404.227C442.348 393.848 450.778 385.474 461.143 385.446Z" fill="white"/>
<path d="M354.823 340.577L326.418 345.773C326.418 345.773 326.755 373.949 326.456 387.156C326.157 400.363 326.051 419.086 326.263 421.456C326.447 423.517 332.774 430.068 332.774 430.068L354.08 437.789L374.788 437.044L392.834 428.587C392.834 428.587 395.525 424.959 396.036 423.73C396.431 422.792 396.065 396.512 396.065 384.002C396.065 373.465 396.595 344.854 396.595 344.854L354.823 340.577Z" fill="#FEB502"/>
<path d="M326.434 426.429C326.761 427.842 338.193 440.608 361.278 440.608C384.363 440.608 395.429 429.408 395.641 428.252C395.852 427.097 395.891 423.803 395.891 423.803C395.891 423.803 384.681 435.881 361.596 435.986C338.183 436.091 326.155 421.588 326.155 421.588C326.155 421.588 326.106 425.016 326.434 426.429Z" fill="#B0B0B0"/>
<path d="M335.719 330.716L325.73 338.081C325.73 338.081 325.438 341.228 325.448 342.71C325.467 344.91 325.769 345.972 325.769 345.972C325.769 345.972 332.48 356.684 361.445 357.449C387.618 358.138 396.479 348.401 396.479 348.401C396.479 348.401 397.598 346.096 397.841 344.432C398.249 341.687 397.763 339.353 397.763 339.353L335.719 330.716Z" fill="#E0E0E0"/>
<path d="M362.245 324.422C345.007 323.792 326.259 329.649 326.152 338.813C326.046 348.307 349.895 353.873 361.703 353.961C376.367 354.067 397.68 348.84 398 340.307C398.329 331.783 381.1 325.111 362.245 324.422Z" fill="#B0B0B0"/>
<path d="M362.141 336.539C362.141 336.539 334.267 341.829 332.671 340.454C331.075 339.078 329.798 337.914 333.416 334.74C337.034 331.566 347.019 327.295 362.992 327.968C379.749 328.68 392.229 334.326 393.032 338.809C393.178 339.598 392.955 341.041 392.046 341.541C391.842 341.656 386.753 344.099 386.753 344.099C386.753 344.099 361.396 336.433 362.141 336.539Z" fill="#858585"/>
<path d="M379.028 333.25C368.245 330.219 350.609 329.432 341.264 333.547C331.92 337.662 332.499 340.55 332.499 340.55C332.499 340.55 340.531 348.07 361.517 348.319C383.922 348.588 391.664 341.566 391.664 341.566C391.664 341.566 391.027 336.626 379.028 333.25Z" fill="#E0E0E0"/>
<path d="M337.861 365.339C337.17 365.677 337.112 366.932 337.005 368.526C336.898 370.119 336.576 416.003 336.791 416.428C337.005 416.853 344.393 424.714 361.205 424.395C377.375 424.086 385.289 418.398 385.289 418.398C385.289 418.398 385.503 389.435 385.61 382.635C385.717 375.836 386.496 367.869 385.61 367.067C384.14 365.734 377.258 367.56 361.312 367.347C345.367 367.135 339.146 364.701 337.861 365.339Z" fill="#719921"/>
<path d="M341.457 370.442C340.705 371.573 341.004 392.43 341.004 396.612C341.004 400.793 340.965 414.038 340.965 414.038C340.965 414.038 347.422 420.198 360.134 420.179C373.029 420.159 381.011 415.89 381.011 415.89C381.011 415.89 381.368 398.2 381.474 390.276C381.58 382.353 381.783 372.947 381.802 371.495C381.821 370.277 369.737 372.245 360.192 371.817C348.098 371.29 342.094 369.477 341.457 370.442Z" fill="#E5DDA0"/>
<path d="M347.068 378.688C346.417 378.981 346.029 379.292 345.902 380.321C345.737 381.652 346.378 382.486 347.106 382.859C347.835 383.232 353.709 383.507 361.078 383.542C368.797 383.587 375.361 383.374 375.361 383.374C375.361 383.374 376.167 382.557 376.167 381.084C376.167 379.895 375.798 379.363 375.361 379.088C374.914 378.813 366.312 379.177 360.729 379.141C354.427 379.097 347.708 378.396 347.068 378.688Z" fill="#749B22"/>
<path d="M347.285 400.25C347.285 407.931 352.238 413.924 361.339 413.838C370.439 413.751 374.3 405.457 374.041 400.643C373.725 394.727 370.363 387.774 360.783 387.774C351.203 387.774 347.285 394.659 347.285 400.25Z" fill="#FF5119"/>
<path d="M282.266 340.577L253.861 345.773C253.861 345.773 254.199 373.949 253.9 387.156C253.601 400.363 253.495 419.086 253.707 421.456C253.89 423.517 260.217 430.068 260.217 430.068L281.523 437.789L302.231 437.044L320.277 428.587C320.277 428.587 322.968 424.959 323.479 423.73C323.875 422.792 323.508 396.512 323.508 384.002C323.508 373.465 324.039 344.854 324.039 344.854L282.266 340.577Z" fill="#FF0000"/>
<path d="M253.877 426.429C254.205 427.842 265.636 440.608 288.721 440.608C311.806 440.608 322.872 429.408 323.084 428.252C323.296 427.097 323.334 423.803 323.334 423.803C323.334 423.803 312.124 435.881 289.039 435.986C265.627 436.091 253.598 421.588 253.598 421.588C253.598 421.588 253.55 425.016 253.877 426.429Z" fill="#B0B0B0"/>
<path d="M263.767 330.716L253.875 338.081C253.875 338.081 253.586 341.228 253.596 342.71C253.615 344.91 253.914 345.972 253.914 345.972C253.914 345.972 260.56 356.684 289.243 357.449C315.163 358.138 323.937 348.401 323.937 348.401C323.937 348.401 325.045 346.096 325.286 344.432C325.69 341.687 325.209 339.353 325.209 339.353L263.767 330.716Z" fill="#E0E0E0"/>
<path d="M289.689 324.422C272.451 323.792 253.702 329.649 253.596 338.813C253.489 348.307 277.338 353.873 289.147 353.961C303.81 354.067 325.124 348.84 325.443 340.307C325.772 331.783 308.544 325.111 289.689 324.422Z" fill="#B0B0B0"/>
<path d="M289.584 336.539C289.584 336.539 261.711 341.829 260.114 340.454C258.518 339.078 257.241 337.914 260.859 334.74C264.478 331.566 274.462 327.295 290.435 327.968C307.192 328.68 319.673 334.326 320.476 338.809C320.621 339.598 320.398 341.041 319.489 341.541C319.286 341.656 314.197 344.099 314.197 344.099C314.197 344.099 288.839 336.433 289.584 336.539Z" fill="#858585"/>
<path d="M307.176 333.25C296.393 330.219 278.756 329.432 269.412 333.547C260.067 337.662 260.647 340.55 260.647 340.55C260.647 340.55 268.678 348.07 289.665 348.319C312.07 348.588 319.812 341.566 319.812 341.566C319.812 341.566 319.175 336.626 307.176 333.25Z" fill="#E0E0E0"/>
<path d="M265.993 365.339C265.311 365.677 265.254 366.932 265.148 368.526C265.043 370.119 264.726 416.003 264.937 416.428C265.148 416.853 272.431 424.714 289.003 424.395C304.942 424.086 312.743 418.398 312.743 418.398C312.743 418.398 312.954 389.435 313.059 382.635C313.165 375.836 313.933 367.869 313.059 367.067C311.611 365.734 304.826 367.56 289.109 367.347C273.391 367.135 267.259 364.701 265.993 365.339Z" fill="#19A4C3"/>
<path d="M268.901 370.442C268.148 371.573 268.447 392.43 268.447 396.612C268.447 400.793 268.409 414.038 268.409 414.038C268.409 414.038 274.866 420.198 287.577 420.179C300.472 420.159 308.454 415.89 308.454 415.89C308.454 415.89 308.811 398.2 308.917 390.276C309.024 382.353 309.226 372.947 309.246 371.495C309.265 370.277 297.181 372.245 287.635 371.817C275.541 371.29 269.538 369.477 268.901 370.442Z" fill="#E5DDA0"/>
<path d="M275.215 378.688C274.565 378.981 274.176 379.292 274.05 380.321C273.885 381.652 274.526 382.486 275.254 382.859C275.982 383.232 281.857 383.507 289.226 383.542C296.945 383.587 303.509 383.374 303.509 383.374C303.509 383.374 304.315 382.557 304.315 381.084C304.315 379.895 303.946 379.363 303.509 379.088C303.062 378.813 294.459 379.177 288.876 379.141C282.575 379.097 275.856 378.396 275.215 378.688Z" fill="#5056E0"/>
<path d="M275.433 400.25C275.433 407.931 280.386 413.924 289.486 413.838C298.587 413.751 302.448 405.457 302.189 400.643C301.873 394.727 298.511 387.774 288.931 387.774C279.351 387.774 275.433 394.659 275.433 400.25Z" fill="#C39C90"/>
<path d="M247.938 288.821L242.016 277.605L222.156 248.719C222.156 248.719 226.192 210.827 226.326 209.399C226.459 207.971 231.543 198.202 231.543 198.202C231.543 198.202 230.077 197.117 229.963 195.517C229.81 193.689 232 188.72 232 188.72L194.146 186.625C194.146 186.625 195.231 190.262 194.279 192.471C193.346 194.661 192.394 195.46 192.394 195.46L202.543 224.46L187.138 270.674C187.138 270.674 180.112 271.988 176.342 275.149C162.575 286.707 156.501 308.281 153.759 323.857C152.426 331.397 148.084 371.003 148.084 383.114C148.084 395.224 145.876 427.861 148.275 432.469C150.655 437.058 158.9 442.371 165.507 446.046C172.115 449.721 181.826 453.567 188.985 454.862C196.145 456.157 205.494 448.978 206.77 437.077C208.046 425.176 247.938 288.821 247.938 288.821Z" fill="#485020"/>
<path d="M205.245 209.226L193.744 206.979C193.744 206.979 193.877 219.108 187.232 243.005C180.586 266.902 172.474 278.784 172.474 278.784C172.474 278.784 176.968 281.031 180.738 282.783C184.509 284.534 194.505 289.276 194.505 289.276C194.505 289.276 203.017 257.496 205.378 248.622C207.739 239.749 209.758 216.975 209.624 216.347C209.51 215.738 205.245 209.226 205.245 209.226Z" fill="#F6AF41"/>
<path d="M229.142 206.352L206.368 212.369C206.368 212.369 203.74 232.743 199.494 247.767C195.248 262.791 185.308 284.955 185.308 284.955C185.308 284.955 201.97 292.324 211.528 298.341C223.563 305.92 230.532 312.47 231.579 312.299C233.369 311.994 240.3 292.305 241.538 288.554C242.775 284.803 243.67 280.671 243.67 280.671C243.67 280.671 234.283 262.791 231.655 241.388C229.027 219.986 229.142 206.352 229.142 206.352Z" fill="#F7C876"/>
<path d="M182.738 290.8C182.738 290.8 199.381 296.665 214.518 307.309C229.656 317.953 233.16 322.942 235.045 322.58C236.911 322.199 247.936 288.667 247.936 288.667C247.936 288.667 252.944 297.674 256.562 316.563C260.18 335.452 259.399 357.902 259.399 357.902L255.324 427.899C255.324 427.899 255.191 437.286 249.821 442.922C244.452 448.559 235.635 451.891 223.982 454.823C195.744 461.888 166.858 447.625 166.477 446.483C166.115 445.36 166.248 413.389 167.486 388.121C168.724 362.853 170.247 330.863 174.246 315.325C179.482 294.818 182.738 290.8 182.738 290.8Z" fill="#317C31"/>
<path d="M189.726 353.619C186.603 355.752 182.623 427.367 185.213 430.185C188.355 433.555 210.272 441.381 232.912 434.964C250.659 429.938 255.666 422.188 255.724 421.674C255.857 420.626 259.322 365.52 259.532 362.15C259.894 356.266 259.265 342.423 259.265 342.423C259.265 342.423 249.897 349.202 233.521 352.401C207.739 357.351 191.725 352.267 189.726 353.619Z" fill="#F5B03E"/>
<path d="M234.607 358.169C217.223 359.749 199.076 370.431 198.067 395.699C197.058 420.967 220.307 428.755 234.227 424.357C249.231 419.596 256.696 407.829 256.696 407.829C256.696 407.829 257.99 393.091 258.371 385.969C258.752 378.848 259.057 369.898 259.057 369.898C259.057 369.898 249.726 356.798 234.607 358.169Z" fill="#FFEBCA"/>
<path d="M215.242 170.211C203.97 169.335 192.602 174.838 192.83 183.597C193.097 192.356 204.712 196.85 213.471 197.231C225.429 197.764 233.236 194.222 233.503 184.968C233.769 175.714 225.01 170.953 215.242 170.211Z" fill="#317C31"/>
<path d="M192.79 194.946C192.79 194.946 198.998 204.238 213.146 204.105C227.293 203.971 231.54 198.202 231.54 198.202C231.54 198.202 237.138 203.076 230.53 209.227C223.409 215.853 201.759 218.233 190.505 206.218C185.44 200.848 192.79 194.946 192.79 194.946Z" fill="#317C31"/>
<path d="M235.234 178.833C235.234 178.833 237.557 168.094 234.358 164.438C232.016 161.753 223.219 157.792 214.193 157.564C203.435 157.316 194.39 162.02 193.057 164.457C191.267 167.694 191.191 175.844 191.933 177.348C192.676 178.852 217.087 192.981 217.582 192.486C218.077 191.991 235.234 178.833 235.234 178.833Z" fill="#F2A259"/>
<path d="M213.2 182.088C197.395 180.908 191.473 173.957 191.473 173.957C191.473 173.957 190.578 178.965 192.311 180.965C194.063 182.983 196.196 184.354 196.196 184.354C196.196 184.354 194.724 186.957 198.589 190.822C202.454 194.688 207.729 196.306 214.089 196.573C219.858 196.82 225.609 195.83 228.846 191.832C230.636 189.623 230.718 186.848 230.718 186.848C230.718 186.848 232.984 184.506 233.974 182.755C234.964 181.003 235.326 177.975 235.326 177.975C235.326 177.975 227.024 183.116 213.2 182.088Z" fill="#CD844F"/>
<path fill-rule="evenodd" clip-rule="evenodd" d="M525.422 642.444C548.433 642.444 565.135 633.926 575.527 616.891C585.919 599.856 585.919 581.71 575.527 562.452L503.154 433.577L628.547 170.828L670.168 83.6147H736.974C739.943 83.6147 742.541 82.5037 744.768 80.2817C746.995 78.0597 748.108 75.0971 748.108 71.3938C748.108 67.6905 746.944 64.7278 744.614 62.5058C742.286 60.2838 739.368 59.1729 735.861 59.1729H673.509C666.732 59.1729 661.067 60.8153 656.512 64.1001C651.958 67.3849 648.345 71.2975 645.673 75.8377L612.27 148.052H55.5543C33.2857 148.052 17.1409 155.644 7.12005 170.828C-2.90082 186.011 -2.34407 202.861 8.79023 221.378L124.587 432.466C130.525 442.095 138.134 449.687 147.412 455.242C156.691 460.797 166.526 463.574 176.918 463.574H462.143H493.133L553.258 573.562C558.454 582.45 558.454 592.079 553.258 602.448C548.062 612.817 539.897 618.002 528.763 618.002H65.5752C62.6061 618.002 60.008 619.305 57.7812 621.91C55.5543 624.515 54.4409 627.478 54.4409 630.798C54.4409 634.118 55.6056 636.889 57.9349 639.111C60.2634 641.333 63.1813 642.444 66.6886 642.444H525.422ZM23.2707 198.673L151.15 419.147L158.934 432.567L176.918 432.62L476.453 433.499L528.287 324.56L553.258 272.078L601.433 170.828H553.258H528.287H41.0291C29.9279 170.828 17.3834 188.522 23.2707 198.673Z" fill="#C4C4C4"/>
<path d="M176.918 432.62L158.934 432.567L151.15 419.147C155.775 427.121 164.496 432.583 176.918 432.62Z" fill="#C4C4C4"/>
<path d="M553.258 170.828V272.078L528.287 324.56V170.828H553.258Z" fill="#C4C4C4"/>
<path d="M553.258 170.828V272.078L528.287 324.56V170.828H553.258Z" fill="#C4C4C4"/>
<path d="M487.114 170.828L487.114 433.53L462.143 433.457L462.143 170.828H487.114Z" fill="#C4C4C4"/>
<path d="M487.114 170.828L487.114 433.53L462.143 433.457L462.143 170.828H487.114Z" fill="#C4C4C4"/>
<path d="M424.509 170.828L424.509 433.273H399.538V170.828H424.509Z" fill="#C4C4C4"/>
<path d="M424.509 170.828L424.509 433.273H399.538V170.828H424.509Z" fill="#C4C4C4"/>
<path d="M359.506 170.828V433.156H334.535L334.535 170.828H359.506Z" fill="#C4C4C4"/>
<path d="M359.506 170.828V433.156H334.535L334.535 170.828H359.506Z" fill="#C4C4C4"/>
<path d="M297.924 170.828V432.902H272.953V170.828H297.924Z" fill="#C4C4C4"/>
<path d="M297.924 170.828V432.902H272.953V170.828H297.924Z" fill="#C4C4C4"/>
<path d="M236.342 170.828V432.794H211.371V170.828H236.342Z" fill="#C4C4C4"/>
<path d="M236.342 170.828V432.794H211.371V170.828H236.342Z" fill="#C4C4C4"/>
<path d="M176.918 170.828V432.62L152.975 432.55L151.947 170.828H176.918Z" fill="#C4C4C4"/>
<path d="M176.918 170.828V432.62L152.975 432.55L151.947 170.828H176.918Z" fill="#C4C4C4"/>
<path d="M111.973 169.89V351.602L87.5451 309.487L87.0015 169.89H111.973Z" fill="#C4C4C4"/>
<path d="M111.973 169.89V351.602L87.5451 309.487L87.0015 169.89H111.973Z" fill="#C4C4C4"/>
<rect width="168.36" height="23.9507" transform="matrix(-1 0 0 1 768.537 200.06)" fill="#C3C3C3"/>
<rect width="169.064" height="23.9507" transform="matrix(-1 0 0 1 738.246 260.641)" fill="#C3C3C3"/>
<rect width="166.951" height="23.9507" transform="matrix(-1 0 0 1 707.251 321.222)" fill="#C3C3C3"/>
<rect width="176.813" height="23.2463" transform="matrix(-1 0 0 1 678.369 388.848)" fill="#C3C3C3"/>
</svg>
