<svg width="294" height="551" viewBox="0 0 294 551" fill="none" xmlns="http://www.w3.org/2000/svg">
<path d="M254.277 550.779H39.4727C17.9006 550.779 0.000244141 533.338 0.000244141 511.306L0.000244141 39.4725C0.000244141 17.9003 17.9006 0 39.4727 0L254.277 0C275.849 0 293.749 17.4413 293.749 39.4725V511.765C293.749 533.338 275.849 550.779 254.277 550.779Z" fill="#424242"/>
<path d="M251.385 532.923H36.3974C26.5293 532.923 18.543 524.936 18.543 515.068L18.543 71.829C18.543 62.0068 26.5292 54.0205 36.3515 54.0205L257.352 54.0205C267.22 54.0205 275.206 62.0068 275.206 71.8749V512.177C275.206 516.445 268.78 532.923 251.385 532.923Z" fill="black"/>
<path d="M191.166 34.8388L103.042 34.8388C99.829 34.8388 97.5341 32.0849 97.5341 29.331C97.5341 26.5771 100.288 23.8232 103.042 23.8232L190.708 23.8232C193.92 23.8232 196.215 26.5771 196.215 29.331C196.215 32.0849 193.92 34.8388 191.166 34.8388Z" fill="#212121"/>
<path d="M254.276 9.17965C270.983 9.17965 284.569 22.7655 284.569 39.4725V511.765C284.569 528.197 270.983 541.599 254.276 541.599H39.4725C22.7655 541.599 9.17965 528.013 9.17965 511.306L9.17965 39.4725C9.17965 23.0409 23.0409 9.17965 39.4725 9.17965L254.276 9.17965ZM254.276 0L39.4725 0C17.9003 0 0 17.9003 0 39.4725L0 511.306C0 533.338 17.9003 550.779 39.4725 550.779H254.276C275.848 550.779 293.749 533.338 293.749 511.765V39.4725C293.749 17.4413 275.848 0 254.276 0Z" fill="#757575"/>
<path d="M75.0421 509.104H45.8508C42.5002 509.104 39.7922 506.396 39.7922 503.046V473.854C39.7922 470.504 42.5002 467.796 45.8508 467.796H75.0421C78.3927 467.796 81.1007 470.504 81.1007 473.854V503.046C81.1007 506.35 78.3927 509.104 75.0421 509.104Z" fill="#81D4FA"/>
<path d="M132.643 509.104H103.452C100.101 509.104 97.3934 506.396 97.3934 503.046V473.854C97.3934 470.504 100.101 467.796 103.452 467.796H132.643C135.994 467.796 138.702 470.504 138.702 473.854V503.046C138.702 506.35 135.994 509.104 132.643 509.104Z" fill="#0288D1"/>
<path d="M190.248 509.104H161.102C157.752 509.104 155.044 506.396 155.044 503.046V473.854C155.044 470.504 157.752 467.796 161.102 467.796H190.294C193.644 467.796 196.352 470.504 196.352 473.854V503.046C196.352 506.35 193.644 509.104 190.248 509.104Z" fill="#00BFA5"/>
<path d="M247.896 509.104H218.705C215.354 509.104 212.646 506.396 212.646 503.046V473.854C212.646 470.504 215.354 467.796 218.705 467.796H247.896C251.246 467.796 253.954 470.504 253.954 473.854V503.046C253.954 506.35 251.246 509.104 247.896 509.104Z" fill="#FF80AB"/>
<path d="M73.7344 363.136C69.8052 363.136 66.3672 361.668 63.4203 358.733C60.4734 355.798 59 352.374 59 348.46V306.39H73.7344V348.46H115.973V363.136H73.7344ZM178.84 363.136V348.46H221.078V306.39H235.813V348.46C235.813 352.374 234.339 355.798 231.392 358.733C228.446 361.668 225.008 363.136 221.078 363.136H178.84ZM147.406 300.519C140.039 300.519 133.941 298.114 129.111 293.304C124.282 288.493 121.867 282.419 121.867 275.082C121.867 267.744 124.282 261.67 129.111 256.859C133.941 252.049 140.039 249.644 147.406 249.644C154.774 249.644 160.872 252.049 165.702 256.859C170.531 261.67 172.946 267.744 172.946 275.082C172.946 282.419 170.531 288.493 165.702 293.304C160.872 298.114 154.774 300.519 147.406 300.519ZM147.406 285.844C150.353 285.844 152.891 284.784 155.019 282.664C157.147 280.544 158.212 278.017 158.212 275.082C158.212 272.146 157.147 269.619 155.019 267.499C152.891 265.379 150.353 264.319 147.406 264.319C144.46 264.319 141.922 265.379 139.794 267.499C137.665 269.619 136.601 272.146 136.601 275.082C136.601 278.017 137.665 280.544 139.794 282.664C141.922 284.784 144.46 285.844 147.406 285.844ZM59 243.773V201.703C59 197.79 60.4734 194.365 63.4203 191.43C66.3672 188.495 69.8052 187.027 73.7344 187.027H115.973V201.703H73.7344V243.773H59ZM221.078 243.773V201.703H178.84V187.027H221.078C225.008 187.027 228.446 188.495 231.392 191.43C234.339 194.365 235.813 197.79 235.813 201.703V243.773H221.078Z" fill="#22F100"/>
</svg>
