<svg width="351" height="325" viewBox="0 0 351 325" fill="none" xmlns="http://www.w3.org/2000/svg">
<rect width="258.138" height="294.531" rx="30" fill="#F0F0F0"/>
<path d="M129.492 113.409C117.273 113.409 107.275 109.516 99.4995 101.732C91.7236 93.9468 87.8357 83.9377 87.8357 71.7044C87.8357 59.4711 91.7236 49.4621 99.4995 41.6772C107.275 33.8924 117.273 30 129.492 30C141.711 30 151.709 33.8924 159.485 41.6772C167.261 49.4621 171.149 59.4711 171.149 71.7044C171.149 83.9377 167.261 93.9468 159.485 101.732C151.709 109.516 141.711 113.409 129.492 113.409ZM57.2876 202.656C52.6591 202.656 48.7249 201.034 45.4849 197.791C42.245 194.547 40.625 190.608 40.625 185.974V176.521C40.625 169.478 42.3838 163.454 45.9015 158.45C49.4191 153.445 53.9551 149.645 59.5093 147.05C71.9137 141.49 83.8089 137.319 95.195 134.539C106.581 131.759 118.014 130.369 129.492 130.369C140.971 130.369 152.357 131.805 163.651 134.678C174.944 137.551 186.793 141.675 199.197 147.05C204.937 149.645 209.565 153.445 213.083 158.45C216.601 163.454 218.359 169.478 218.359 176.521V185.974C218.359 190.608 216.739 194.547 213.499 197.791C210.26 201.034 206.325 202.656 201.697 202.656H57.2876Z" fill="#303030"/>
<rect x="41" y="224.841" width="120" height="11" rx="5.5" fill="#303030"/>
<rect x="41" y="252.841" width="108" height="11" rx="5.5" fill="#303030"/>
<circle cx="258.138" cy="232.748" r="84.6354" fill="white"/>
<path d="M258.252 278.39C260.78 278.39 262.901 277.534 264.617 275.822C266.332 274.111 267.189 271.99 267.189 269.46V232.651C267.189 230.121 266.334 228 264.624 226.288C262.914 224.577 260.795 223.721 258.267 223.721C255.739 223.721 253.617 224.577 251.902 226.288C250.187 228 249.329 230.121 249.329 232.651V269.46C249.329 271.99 250.184 274.111 251.894 275.822C253.605 277.534 255.724 278.39 258.252 278.39ZM257.621 210.87C260.588 210.87 263.069 209.889 265.066 207.927C267.062 205.965 268.061 203.534 268.061 200.634C268.061 197.446 267.059 194.871 265.056 192.907C263.053 190.943 260.571 189.961 257.61 189.961C254.485 189.961 251.961 190.943 250.037 192.907C248.113 194.871 247.151 197.41 247.151 200.525C247.151 203.516 248.155 205.988 250.161 207.941C252.168 209.894 254.655 210.87 257.621 210.87ZM257.694 325C244.789 325 232.729 322.598 221.511 317.794C210.294 312.99 200.479 306.383 192.068 297.971C183.656 289.56 177.049 279.75 172.245 268.542C167.441 257.333 165.039 245.271 165.039 232.354C165.039 219.437 167.441 207.365 172.245 196.137C177.049 184.908 183.645 175.121 192.034 166.775C200.422 158.428 210.226 151.82 221.445 146.952C232.664 142.083 244.738 139.648 257.667 139.648C270.596 139.648 282.683 142.077 293.928 146.935C305.173 151.792 314.964 158.385 323.3 166.712C331.635 175.039 338.234 184.831 343.097 196.089C347.959 207.346 350.391 219.441 350.391 232.375C350.391 245.3 347.956 257.369 343.087 268.585C338.219 279.8 331.611 289.591 323.264 297.958C314.918 306.325 305.129 312.923 293.898 317.754C282.666 322.585 270.598 325 257.694 325ZM257.715 304.526C277.68 304.526 294.669 297.53 308.681 283.536C322.693 269.543 329.699 252.472 329.699 232.324C329.699 212.359 322.707 195.37 308.722 181.358C294.737 167.346 277.662 160.34 257.497 160.34C237.532 160.34 220.543 167.332 206.531 181.317C192.519 195.302 185.513 212.377 185.513 232.542C185.513 252.507 192.509 269.496 206.503 283.508C220.496 297.52 237.567 304.526 257.715 304.526Z" fill="#2668B5"/>
</svg>
